/* XPM */
static char *b9d4e0e21e7b40d3fc956fa4fa56d977zl1hkgqiFz5binrk[] = {
/* columns rows colors chars-per-pixel */
"64 64 7 1 ",
"  c #4F2E5E",
". c #633975",
"X c #684E74",
"o c #72587E",
"O c #785686",
"+ c #7C4792",
"@ c #9B59B6",
/* pixels */
"@@@@@@@@@@@@++++++++XXXXXXXX@@@@@@@@....++++@@@@@@@@@@@@........",
"@@@@@@@@@@@@++++++++XXXXXXXX@@@@@@@@....++++@@@@@@@@@@@@........",
"@@@@@@@@@@@@++++++++XXXXXXXX@@@@@@@@....++++@@@@@@@@@@@@........",
"@@@@@@@@@@@@++++++++XXXXXXXX@@@@@@@@....++++@@@@@@@@@@@@........",
"@@@@@@@@@@@@@@@@++++....XXXX@@@@@@@@@@@@@@@@@@@@@@@@++++@@@@@@@@",
"@@@@@@@@@@@@@@@@++++....XXXX@@@@@@@@@@@@@@@@@@@@@@@@++++@@@@@@@@",
"@@@@@@@@@@@@@@@@++++....XXXX@@@@@@@@@@@@@@@@@@@@@@@@++++@@@@@@@@",
"@@@@@@@@@@@@@@@@++++....XXXX@@@@@@@@@@@@@@@@@@@@@@@@++++@@@@@@@@",
"++++@@@@@@@@++++....++++@@@@@@@@@@@@@@@@@@@@@@@@@@@@++++....@@@@",
"++++@@@@@@@@++++....++++@@@@@@@@@@@@@@@@@@@@@@@@@@@@++++....@@@@",
"++++@@@@@@@@++++....++++@@@@@@@@@@@@@@@@@@@@@@@@@@@@++++....@@@@",
"++++@@@@@@@@++++....++++@@@@@@@@@@@@@@@@@@@@@@@@@@@@++++....@@@@",
"....@@@@++++....++++@@@@@@@@....++++++++++++....@@@@@@@@........",
"....@@@@++++....++++@@@@@@@@....++++++++++++....@@@@@@@@........",
"....@@@@++++....++++@@@@@@@@....++++++++++++....@@@@@@@@........",
"....@@@@++++....++++@@@@@@@@....++++++++++++....@@@@@@@@........",
"++++++++....++++@@@@@@@@....        @@@@OOOO........@@@@@@@@....",
"++++++++....++++@@@@@@@@....        @@@@OOOO........@@@@@@@@....",
"++++++++....++++@@@@@@@@....        @@@@OOOO........@@@@@@@@....",
"++++++++....++++@@@@@@@@....        @@@@OOOO........@@@@@@@@....",
"@@@@@@@@@@@@@@@@@@@@....    oooo@@@@@@@@@@@@@@@@........@@@@@@@@",
"@@@@@@@@@@@@@@@@@@@@....    oooo@@@@@@@@@@@@@@@@........@@@@@@@@",
"@@@@@@@@@@@@@@@@@@@@....    oooo@@@@@@@@@@@@@@@@........@@@@@@@@",
"@@@@@@@@@@@@@@@@@@@@....    oooo@@@@@@@@@@@@@@@@........@@@@@@@@",
"@@@@@@@@@@@@@@@@....    ....++++@@@@@@@@++++@@@@@@@@........++++",
"@@@@@@@@@@@@@@@@....    ....++++@@@@@@@@++++@@@@@@@@........++++",
"@@@@@@@@@@@@@@@@....    ....++++@@@@@@@@++++@@@@@@@@........++++",
"@@@@@@@@@@@@@@@@....    ....++++@@@@@@@@++++@@@@@@@@........++++",
"....    ....++++............@@@@@@@@@@@@@@@@++++@@@@@@@@....++++",
"....    ....++++............@@@@@@@@@@@@@@@@++++@@@@@@@@....++++",
"....    ....++++............@@@@@@@@@@@@@@@@++++@@@@@@@@....++++",
"....    ....++++............@@@@@@@@@@@@@@@@++++@@@@@@@@....++++",
"............++++............@@@@++++++++@@@@@@@@++++@@@@@@@@@@@@",
"............++++............@@@@++++++++@@@@@@@@++++@@@@@@@@@@@@",
"............++++............@@@@++++++++@@@@@@@@++++@@@@@@@@@@@@",
"............++++............@@@@++++++++@@@@@@@@++++@@@@@@@@@@@@",
"@@@@++++@@@@@@@@....    ....++++....++++++++@@@@@@@@@@@@@@@@@@@@",
"@@@@++++@@@@@@@@....    ....++++....++++++++@@@@@@@@@@@@@@@@@@@@",
"@@@@++++@@@@@@@@....    ....++++....++++++++@@@@@@@@@@@@@@@@@@@@",
"@@@@++++@@@@@@@@....    ....++++....++++++++@@@@@@@@@@@@@@@@@@@@",
"++++    ++++@@@@@@@@....    ....++++++++++++@@@@@@@@++++....++++",
"++++    ++++@@@@@@@@....    ....++++++++++++@@@@@@@@++++....++++",
"++++    ++++@@@@@@@@....    ....++++++++++++@@@@@@@@++++....++++",
"++++    ++++@@@@@@@@....    ....++++++++++++@@@@@@@@++++....++++",
"++++........++++@@@@@@@@........++++++++@@@@@@@@++++....++++++++",
"++++........++++@@@@@@@@........++++++++@@@@@@@@++++....++++++++",
"++++........++++@@@@@@@@........++++++++@@@@@@@@++++....++++++++",
"++++........++++@@@@@@@@........++++++++@@@@@@@@++++....++++++++",
"@@@@@@@@++++....++++@@@@@@@@++++++++@@@@@@@@++++....++++@@@@@@@@",
"@@@@@@@@++++....++++@@@@@@@@++++++++@@@@@@@@++++....++++@@@@@@@@",
"@@@@@@@@++++....++++@@@@@@@@++++++++@@@@@@@@++++....++++@@@@@@@@",
"@@@@@@@@++++....++++@@@@@@@@++++++++@@@@@@@@++++....++++@@@@@@@@",
"++++@@@@@@@@++++....++++@@@@@@@@@@@@@@@@++++....++++@@@@@@@@++++",
"++++@@@@@@@@++++....++++@@@@@@@@@@@@@@@@++++....++++@@@@@@@@++++",
"++++@@@@@@@@++++....++++@@@@@@@@@@@@@@@@++++....++++@@@@@@@@++++",
"++++@@@@@@@@++++....++++@@@@@@@@@@@@@@@@++++....++++@@@@@@@@++++",
"++++....@@@@@@@@++++....++++++++++++++++....++++@@@@@@@@....++++",
"++++....@@@@@@@@++++....++++++++++++++++....++++@@@@@@@@....++++",
"++++....@@@@@@@@++++....++++++++++++++++....++++@@@@@@@@....++++",
"++++....@@@@@@@@++++....++++++++++++++++....++++@@@@@@@@....++++",
"....@@@@++++++++....++++++++++++++++........@@@@@@@@@@@@....++++",
"....@@@@++++++++....++++++++++++++++........@@@@@@@@@@@@....++++",
"....@@@@++++++++....++++++++++++++++........@@@@@@@@@@@@....++++",
"....@@@@++++++++....++++++++++++++++........@@@@@@@@@@@@....++++"
};
