/* XPM */
static char *f0b9cfbacc8d4276deebe18009885496n5CspT4Yh0dtfyad[] = {
/* columns rows colors chars-per-pixel */
"64 64 3 1 ",
"  c #4F7A36",
". c #589137",
"X c #65AB3F",
/* pixels */
"     XXXXXXXXX.....XXXXXXXXXXXXXXXXXXXXXXX....     .....XXXXXXXX",
"     XXXXXXXXX.....XXXXXXXXXXXXXXXXXXXXXXX....     .....XXXXXXXX",
"     XXXXXXXXX.....XXXXXXXXXXXXXXXXXXXXXXX....     .....XXXXXXXX",
"     XXXXXXXXX.....XXXXXXXXXXXXXXXXXXXXXXX....     .....XXXXXXXX",
"     XXXXXXXXX.....XXXXXXXXXXXXXXXXXXXXXXX....     .....XXXXXXXX",
"XXXXXXXXXXXXXX.....    .....XXXXXXXXXXXXXXXXXXXXXXXXXXXXXXXXXXXX",
"XXXXXXXXXXXXXX.....    .....XXXXXXXXXXXXXXXXXXXXXXXXXXXXXXXXXXXX",
"XXXXXXXXXXXXXX.....    .....XXXXXXXXXXXXXXXXXXXXXXXXXXXXXXXXXXXX",
"XXXXXXXXXXXXXX.....    .....XXXXXXXXXXXXXXXXXXXXXXXXXXXXXXXXXXXX",
"XXXXX....XXXXXXXXXXXXXX.....XXXXXXXXX.....XXXXXXXXXXXXXXXXXXXXXX",
"XXXXX....XXXXXXXXXXXXXX.....XXXXXXXXX.....XXXXXXXXXXXXXXXXXXXXXX",
"XXXXX....XXXXXXXXXXXXXX.....XXXXXXXXX.....XXXXXXXXXXXXXXXXXXXXXX",
"XXXXX....XXXXXXXXXXXXXX.....XXXXXXXXX.....XXXXXXXXXXXXXXXXXXXXXX",
"XXXXX....XXXXXXXXXXXXXX.....XXXXXXXXX.....XXXXXXXXXXXXXXXXXXXXXX",
"XXXXX....XXXXX     XXXXXXXXXXXXXXXXXX.....XXXX     XXXXX....XXXX",
"XXXXX....XXXXX     XXXXXXXXXXXXXXXXXX.....XXXX     XXXXX....XXXX",
"XXXXX....XXXXX     XXXXXXXXXXXXXXXXXX.....XXXX     XXXXX....XXXX",
"XXXXX....XXXXX     XXXXXXXXXXXXXXXXXX.....XXXX     XXXXX....XXXX",
"XXXXXXXXXXXXXX     XXXXXXXXXXXXXXXXXXXXXXXXXXX     XXXXX....XXXX",
"XXXXXXXXXXXXXX     XXXXXXXXXXXXXXXXXXXXXXXXXXX     XXXXX....XXXX",
"XXXXXXXXXXXXXX     XXXXXXXXXXXXXXXXXXXXXXXXXXX     XXXXX....XXXX",
"XXXXXXXXXXXXXX     XXXXXXXXXXXXXXXXXXXXXXXXXXX     XXXXX....XXXX",
"XXXXXXXXXXXXXX     XXXXXXXXXXXXXXXXXXXXXXXXXXX     XXXXX....XXXX",
".....XXXXXXXXXXXXXXXXXXXXXXX....     .....XXXXXXXXXXXXXXXXXXXXXX",
".....XXXXXXXXXXXXXXXXXXXXXXX....     .....XXXXXXXXXXXXXXXXXXXXXX",
".....XXXXXXXXXXXXXXXXXXXXXXX....     .....XXXXXXXXXXXXXXXXXXXXXX",
".....XXXXXXXXXXXXXXXXXXXXXXX....     .....XXXXXXXXXXXXXXXXXXXXXX",
".....XXXXXXXXX.....XXXXXXXXX....     .....XXXXXXXXXXXXXXXXXXXXXX",
".....XXXXXXXXX.....XXXXXXXXX....     .....XXXXXXXXXXXXXXXXXXXXXX",
".....XXXXXXXXX.....XXXXXXXXX....     .....XXXXXXXXXXXXXXXXXXXXXX",
".....XXXXXXXXX.....XXXXXXXXX....     .....XXXXXXXXXXXXXXXXXXXXXX",
".....XXXXXXXXX.....XXXXXXXXX....     .....XXXXXXXXXXXXXXXXXXXXXX",
"XXXXXXXXXXXXXX.....XXXXXXXXXXXXXXXXXXXXXXXXXXX.....XXXXXXXXXXXXX",
"XXXXXXXXXXXXXX.....XXXXXXXXXXXXXXXXXXXXXXXXXXX.....XXXXXXXXXXXXX",
"XXXXXXXXXXXXXX.....XXXXXXXXXXXXXXXXXXXXXXXXXXX.....XXXXXXXXXXXXX",
"XXXXXXXXXXXXXX.....XXXXXXXXXXXXXXXXXXXXXXXXXXX.....XXXXXXXXXXXXX",
"XXXXXXXXXXXXXX.....XXXXXXXXXXXXXXXXXXXXXXXXXXX.....XXXXXXXXXXXXX",
"XXXXXXXXXXXXXXXXXXXXXXXXXXXX....XXXXXXXXXXXXXX.....XXXXXXXXX....",
"XXXXXXXXXXXXXXXXXXXXXXXXXXXX....XXXXXXXXXXXXXX.....XXXXXXXXX....",
"XXXXXXXXXXXXXXXXXXXXXXXXXXXX....XXXXXXXXXXXXXX.....XXXXXXXXX....",
"XXXXXXXXXXXXXXXXXXXXXXXXXXXX....XXXXXXXXXXXXXX.....XXXXXXXXX....",
"XXXXX    XXXXXXXXXX....     ....XXXXXXXXXXXXXXXXXXXXXXXXXXXX....",
"XXXXX    XXXXXXXXXX....     ....XXXXXXXXXXXXXXXXXXXXXXXXXXXX....",
"XXXXX    XXXXXXXXXX....     ....XXXXXXXXXXXXXXXXXXXXXXXXXXXX....",
"XXXXX    XXXXXXXXXX....     ....XXXXXXXXXXXXXXXXXXXXXXXXXXXX....",
"XXXXX    XXXXXXXXXX....     ....XXXXXXXXXXXXXXXXXXXXXXXXXXXX....",
"XXXXX    XXXXXXXXXX....XXXXXXXXXXXXXX.....XXXXXXXXX     XXXXXXXX",
"XXXXX    XXXXXXXXXX....XXXXXXXXXXXXXX.....XXXXXXXXX     XXXXXXXX",
"XXXXX    XXXXXXXXXX....XXXXXXXXXXXXXX.....XXXXXXXXX     XXXXXXXX",
"XXXXX    XXXXXXXXXX....XXXXXXXXXXXXXX.....XXXXXXXXX     XXXXXXXX",
"XXXXXXXXX.....XXXXXXXXXXXXXXXXXXXXXXX.....XXXXXXXXX     XXXXXXXX",
"XXXXXXXXX.....XXXXXXXXXXXXXXXXXXXXXXX.....XXXXXXXXX     XXXXXXXX",
"XXXXXXXXX.....XXXXXXXXXXXXXXXXXXXXXXX.....XXXXXXXXX     XXXXXXXX",
"XXXXXXXXX.....XXXXXXXXXXXXXXXXXXXXXXX.....XXXXXXXXX     XXXXXXXX",
"XXXXXXXXX.....XXXXXXXXXXXXXXXXXXXXXXX.....XXXXXXXXX     XXXXXXXX",
"XXXXXXXXX.....XXXXXXXXXXXXXX    XXXXXXXXXXXXXXXXXXXXXXXXXXXX....",
"XXXXXXXXX.....XXXXXXXXXXXXXX    XXXXXXXXXXXXXXXXXXXXXXXXXXXX....",
"XXXXXXXXX.....XXXXXXXXXXXXXX    XXXXXXXXXXXXXXXXXXXXXXXXXXXX....",
"XXXXXXXXX.....XXXXXXXXXXXXXX    XXXXXXXXXXXXXXXXXXXXXXXXXXXX....",
"     XXXXXXXXXXXXXXXXXXXXXXX    XXXXXXXXXX....     .....XXXX....",
"     XXXXXXXXXXXXXXXXXXXXXXX    XXXXXXXXXX....     .....XXXX....",
"     XXXXXXXXXXXXXXXXXXXXXXX    XXXXXXXXXX....     .....XXXX....",
"     XXXXXXXXXXXXXXXXXXXXXXX    XXXXXXXXXX....     .....XXXX....",
"     XXXXXXXXXXXXXXXXXXXXXXX    XXXXXXXXXX....     .....XXXX...."
};
