/* XPM */
static char *_449e0ff58ae4091e219fee1c2cbbbf7D7QMuMXhs77xspL4[] = {
/* columns rows colors chars-per-pixel */
"64 64 7 1 ",
"  c black",
". c gray13",
"X c gray26",
"o c gray34",
"O c gray38",
"+ c gray46",
"@ c gray62",
/* pixels */
"oo@@++++++++++++++++++++++++OO  OO@@++++++++++++++++++++++++OO  ",
"oo@@++++++++++++++++++++++++OO  OO@@++++++++++++++++++++++++OO  ",
"@@OOOOOOOOOOOOOOOOOOOOOOOOOO++..@@OOOOOOOOOOOOOOOOOOOOOOOOOO++..",
"@@OOOOOOOOOOOOOOOOOOOOOOOOOO++..@@OOOOOOOOOOOOOOOOOOOOOOOOOO++..",
"++OOOOOOOOOOOOOOOOOOOOOOOOOOOO..++OOOOOOOOOOOOOOOOOOOOOOOOOOOO..",
"++OOOOOOOOOOOOOOOOOOOOOOOOOOOO..++OOOOOOOOOOOOOOOOOOOOOOOOOOOO..",
"++OOOOOOOOOOOOOOOOOOOOOOOOOOXX..++OOOOOOOOOOOOOOOOOOOOOOOOOOXX..",
"++OOOOOOOOOOOOOOOOOOOOOOOOOOXX..++OOOOOOOOOOOOOOOOOOOOOOOOOOXX..",
"++OOOOOOOOOOOOOOOOOOOOOOOOOOXX..++OOOOOOOOOOOOOOOOOOOOOOOOOOXX..",
"++OOOOOOOOOOOOOOOOOOOOOOOOOOXX..++OOOOOOOOOOOOOOOOOOOOOOOOOOXX..",
"++OOOOOOOOOOOOOOOOOOOOOOOOOOXX..++OOOOOOOOOOOOOOOOOOOOOOOOOOXX..",
"++OOOOOOOOOOOOOOOOOOOOOOOOOOXX..++OOOOOOOOOOOOOOOOOOOOOOOOOOXX..",
"++OOOOOOOOOOOOOOOOOOOOOOOOOOXX..++OOOOOOOOOOOOOOOOOOOOOOOOOOXX..",
"++OOOOOOOOOOOOOOOOOOOOOOOOOOXX..++OOOOOOOOOOOOOOOOOOOOOOOOOOXX..",
"++OOOOOOOOOOOOOOOOOOOOOOOOOOXX..++OOOOOOOOOOOOOOOOOOOOOOOOOOXX..",
"++OOOOOOOOOOOOOOOOOOOOOOOOOOXX..++OOOOOOOOOOOOOOOOOOOOOOOOOOXX..",
"++OOOOOOOOOOOOOOOOOOOOOOOOOOXX..++OOOOOOOOOOOOOOOOOOOOOOOOOOXX..",
"++OOOOOOOOOOOOOOOOOOOOOOOOOOXX..++OOOOOOOOOOOOOOOOOOOOOOOOOOXX..",
"++OOOOOOOOOOOOOOOOOOOOOOOOOOXX..++OOOOOOOOOOOOOOOOOOOOOOOOOOXX..",
"++OOOOOOOOOOOOOOOOOOOOOOOOOOXX..++OOOOOOOOOOOOOOOOOOOOOOOOOOXX..",
"++OOOOOOOOOOOOOOOOOOOOOOOOOOXX..++OOOOOOOOOOOOOOOOOOOOOOOOOOXX..",
"++OOOOOOOOOOOOOOOOOOOOOOOOOOXX..++OOOOOOOOOOOOOOOOOOOOOOOOOOXX..",
"++OOOOOOOOOOOOOOOOOOOOOOOOOOXX..++OOOOOOOOOOOOOOOOOOOOOOOOOOXX..",
"++OOOOOOOOOOOOOOOOOOOOOOOOOOXX..++OOOOOOOOOOOOOOOOOOOOOOOOOOXX..",
"++OOOOOOOOOOOOOOOOOOOOOOOOOOXX..++OOOOOOOOOOOOOOOOOOOOOOOOOOXX..",
"++OOOOOOOOOOOOOOOOOOOOOOOOOOXX..++OOOOOOOOOOOOOOOOOOOOOOOOOOXX..",
"++OOOOOOOOOOOOOOOOOOOOOOOOOOXX..++OOOOOOOOOOOOOOOOOOOOOOOOOOXX..",
"++OOOOOOOOOOOOOOOOOOOOOOOOOOXX..++OOOOOOOOOOOOOOOOOOOOOOOOOOXX..",
"OO++OOXXXXXXXXXXXXXXXXXXXXXX..  OO++OOXXXXXXXXXXXXXXXXXXXXXX..  ",
"OO++OOXXXXXXXXXXXXXXXXXXXXXX..  OO++OOXXXXXXXXXXXXXXXXXXXXXX..  ",
"  ..........................      ..........................    ",
"  ..........................      ..........................    ",
"OO@@++++++++++++++++++++++++OO  OO@@++++++++++++++++++++++++OO  ",
"OO@@++++++++++++++++++++++++OO  OO@@++++++++++++++++++++++++OO  ",
"@@OOOOOOOOOOOOOOOOOOOOOOOOOO++..@@OOOOOOOOOOOOOOOOOOOOOOOOOO++..",
"@@OOOOOOOOOOOOOOOOOOOOOOOOOO++..@@OOOOOOOOOOOOOOOOOOOOOOOOOO++..",
"++OOOOOOOOOOOOOOOOOOOOOOOOOOOO..++OOOOOOOOOOOOOOOOOOOOOOOOOOOO..",
"++OOOOOOOOOOOOOOOOOOOOOOOOOOOO..++OOOOOOOOOOOOOOOOOOOOOOOOOOOO..",
"++OOOOOOOOOOOOOOOOOOOOOOOOOOXX..++OOOOOOOOOOOOOOOOOOOOOOOOOOXX..",
"++OOOOOOOOOOOOOOOOOOOOOOOOOOXX..++OOOOOOOOOOOOOOOOOOOOOOOOOOXX..",
"++OOOOOOOOOOOOOOOOOOOOOOOOOOXX..++OOOOOOOOOOOOOOOOOOOOOOOOOOXX..",
"++OOOOOOOOOOOOOOOOOOOOOOOOOOXX..++OOOOOOOOOOOOOOOOOOOOOOOOOOXX..",
"++OOOOOOOOOOOOOOOOOOOOOOOOOOXX..++OOOOOOOOOOOOOOOOOOOOOOOOOOXX..",
"++OOOOOOOOOOOOOOOOOOOOOOOOOOXX..++OOOOOOOOOOOOOOOOOOOOOOOOOOXX..",
"++OOOOOOOOOOOOOOOOOOOOOOOOOOXX..++OOOOOOOOOOOOOOOOOOOOOOOOOOXX..",
"++OOOOOOOOOOOOOOOOOOOOOOOOOOXX..++OOOOOOOOOOOOOOOOOOOOOOOOOOXX..",
"++OOOOOOOOOOOOOOOOOOOOOOOOOOXX..++OOOOOOOOOOOOOOOOOOOOOOOOOOXX..",
"++OOOOOOOOOOOOOOOOOOOOOOOOOOXX..++OOOOOOOOOOOOOOOOOOOOOOOOOOXX..",
"++OOOOOOOOOOOOOOOOOOOOOOOOOOXX..++OOOOOOOOOOOOOOOOOOOOOOOOOOXX..",
"++OOOOOOOOOOOOOOOOOOOOOOOOOOXX..++OOOOOOOOOOOOOOOOOOOOOOOOOOXX..",
"++OOOOOOOOOOOOOOOOOOOOOOOOOOXX..++OOOOOOOOOOOOOOOOOOOOOOOOOOXX..",
"++OOOOOOOOOOOOOOOOOOOOOOOOOOXX..++OOOOOOOOOOOOOOOOOOOOOOOOOOXX..",
"++OOOOOOOOOOOOOOOOOOOOOOOOOOXX..++OOOOOOOOOOOOOOOOOOOOOOOOOOXX..",
"++OOOOOOOOOOOOOOOOOOOOOOOOOOXX..++OOOOOOOOOOOOOOOOOOOOOOOOOOXX..",
"++OOOOOOOOOOOOOOOOOOOOOOOOOOXX..++OOOOOOOOOOOOOOOOOOOOOOOOOOXX..",
"++OOOOOOOOOOOOOOOOOOOOOOOOOOXX..++OOOOOOOOOOOOOOOOOOOOOOOOOOXX..",
"++OOOOOOOOOOOOOOOOOOOOOOOOOOXX..++OOOOOOOOOOOOOOOOOOOOOOOOOOXX..",
"++OOOOOOOOOOOOOOOOOOOOOOOOOOXX..++OOOOOOOOOOOOOOOOOOOOOOOOOOXX..",
"++OOOOOOOOOOOOOOOOOOOOOOOOOOXX..++OOOOOOOOOOOOOOOOOOOOOOOOOOXX..",
"++OOOOOOOOOOOOOOOOOOOOOOOOOOXX..++OOOOOOOOOOOOOOOOOOOOOOOOOOXX..",
"OO++OOXXXXXXXXXXXXXXXXXXXXXX..  OO++OOXXXXXXXXXXXXXXXXXXXXXX..  ",
"OO++OOXXXXXXXXXXXXXXXXXXXXXX..  OO++OOXXXXXXXXXXXXXXXXXXXXXX..  ",
"  ..........................      ..........................    ",
"  ..........................      ..........................    "
};
