/* XPM */
static char *bbf727c871104057c113b04b2d4de513KUOk3Rij50MCKAyx[] = {
/* columns rows colors chars-per-pixel */
"64 64 11 1 ",
"  c None",
". c black",
"X c #45241F",
"o c #371479",
"O c gray46",
"+ c #E8AD4F",
"@ c #EBBC6C",
"# c #3F3687",
"$ c #004FCE",
"% c #00C8CB",
"& c white",
/* pixels */
"                  ............................                  ",
"                  ............................                  ",
"              ....XXXXXXXXXXXXXXXXXXXXXXXXXXXX....              ",
"              ....XXXXXXXXXXXXXXXXXXXXXXXXXXXX....              ",
"              ....XXXXXXXXXXXXXXXXXXXXXXXXXXXX....              ",
"              ....XXXXXXXXXXXXXXXXXXXXXXXXXXXX....              ",
"              ....XXX@@@@@@@@@@@@@@@@@@@@@@XXX....              ",
"              ....XXX@@@@@@@@@@@@@@@@@@@@@@XXX....              ",
"              ....@@@@@@@@@@@@@@@@@@@@@@@@@@@@....              ",
"              ....@@@@@@@@@@@@@@@@@@@@@@@@@@@@....              ",
"              ....@@@&&&&$$$@@@@@@@@$$$&&&&@@@....              ",
"              ....@@@@@@@@@@++++++++@@@@@@@@@@....              ",
"              ....@@@@@@@@@@++++++++@@@@@@@@@@....              ",
"              ....@@@@@@@XXX@@@@@@@@XXX@@@@@@@....              ",
"              ....@@@@@@@XXX@@@@@@@@XXX@@@@@@@....              ",
"    ..............@@@@@@@XXXXXXXXXXXXXX@@@@@@@..............    ",
"    ..............@@@@@@@XXXXXXXXXXXXXX@@@@@@@..............    ",
"....%%%%%%%%%%%%%%%%%%%%%@@@@@@@@@@@@@@%%%%%%%%%%%%%%%%%%%%%....",
"....%%%%%%%%%%%%%%%%%%%%%@@@@@@@@@@@@@@%%%%%%%%%%%%%%%%%%%%%....",
"....%%%%%%%%%%%%%%%%%%%%%%%%@@@@@@@@%%%%%%%%%%%%%%%%%%%%%%%%....",
"....%%%%%%%%%%%%%%%%%%%%%%%%@@@@@@@@%%%%%%%%%%%%%%%%%%%%%%%%....",
"....%%%%%%%%%%%%%%%%%%%%%%%%%%%%%%%%%%%%%%%%%%%%%%%%%%%%%%%%....",
"....%%%%%%%%%%%%%%%%%%%%%%%%%%%%%%%%%%%%%%%%%%%%%%%%%%%%%%%%....",
"....%%%%%%%%%%%%%%%%%%%%%%%%%%%%%%%%%%%%%%%%%%%%%%%%%%%%%%%%....",
"....%%%%%%%%%%%%%%%%%%%%%%%%%%%%%%%%%%%%%%%%%%%%%%%%%%%%%%%%....",
"....@@@@@@@@@@@@@@%%%%%%%%%%%%%%%%%%%%%%%%%%%%@@@@@@@@@@@@@@....",
"....@@@@@@@@@@@@@@%%%%%%%%%%%%%%%%%%%%%%%%%%%%@@@@@@@@@@@@@@....",
"....@@@@@@@@@@@@@@%%%%%%%%%%%%%%%%%%%%%%%%%%%%@@@@@@@@@@@@@@....",
"....@@@@@@@@@@@@@@%%%%%%%%%%%%%%%%%%%%%%%%%%%%@@@@@@@@@@@@@@....",
"....@@@@@@@@@@@@@@%%%%%%%%%%%%%%%%%%%%%%%%%%%%@@@@@@@@@@@@@@....",
"....@@@@@@@@@@@@@@%%%%%%%%%%%%%%%%%%%%%%%%%%%%@@@@@@@@@@@@@@....",
"....@@@@@@@@@@@@@@%%%%%%%%%%%%%%%%%%%%%%%%%%%%@@@@@@@@@@@@@@....",
"....@@@@@@@@@@@@@@%%%%%%%%%%%%%%%%%%%%%%%%%%%%@@@@@@@@@@@@@@....",
"....@@@@@@@@@@@@@@%%%%%%%%%%%%%%%%%%%%%%%%%%%%@@@@@@@@@@@@@@....",
"....@@@@@@@@@@@@@@%%%%%%%%%%%%%%%%%%%%%%%%%%%%@@@@@@@@@@@@@@....",
"....@@@@@@@@@@@@@@%%%%%%%%%%%%%%%%%%%%%%%%%%%%@@@@@@@@@@@@@@....",
"....@@@@@@@@@@@@@@ooooooooooooooooooooo%%%%%%%@@@@@@@@@@@@@@....",
"....@@@@@@@@@@@@@@ooooooooooooooooooooo%%%%%%%@@@@@@@@@@@@@@....",
"....@@@@@@@@@@@@@@ooooooooooooooooooooooooo%%%@@@@@@@@@@@@@@....",
"....@@@@@@@@@@@@@@ooooooooooooooooooooooooo%%%@@@@@@@@@@@@@@....",
"    ..............oooooooooooooooooooooooooooo..............    ",
"    ..............oooooooooooooooooooooooooooo..............    ",
"              ....oooooooooooooooooooooooooooo....              ",
"              ....oooooooooooooooooooooooooooo....              ",
"              ....oooooooooooooooooooooooooooo....              ",
"              ....oooooooooooooooooooooooooooo....              ",
"              ....oooooooooooooooooooooooooooo....              ",
"              ....oooooooooooooooooooooooooooo....              ",
"              ....oooooooooooooooooooooooooooo....              ",
"              ....oooooooooooooooooooooooooooo....              ",
"              ....ooo#######oooooooo#######ooo....              ",
"              ....ooo#######oooooooo#######ooo....              ",
"              ....oooooooooooooooooooooooooooo....              ",
"              ....oooooooooooooooooooooooooooo....              ",
"              ....oooooooooooooooooooooooooooo....              ",
"              ....oooooooooooooooooooooooooooo....              ",
"              ....oooooooooooooooooooooooooooo....              ",
"              ....oooooooooooooooooooooooooooo....              ",
"              ....oooooooooooooooooooooooooooo....              ",
"              ....OOOOOOOOOOOOOOOOOOOOOOOOOOOO....              ",
"              ....OOOOOOOOOOOOOOOOOOOOOOOOOOOO....              ",
"              ....OOOOOOOOOOOOOOOOOOOOOOOOOOOO....              ",
"              ....OOOOOOOOOOOOOOOOOOOOOOOOOOOO....              ",
"                  ............................                  "
};
